#define Color_width 50
#define Color_height 40
static char Color_bits[] = {
   0x00, 0x00, 0x00, 0x00, 0x00, 0x00, 0x00, 0x00, 0x00, 0x00, 0x00, 0x00,
   0x00, 0x00, 0x00, 0x00, 0x00, 0x00, 0x00, 0x00, 0x00, 0x00, 0x00, 0x00,
   0x00, 0x00, 0x00, 0x00, 0x00, 0x00, 0x00, 0x00, 0x00, 0x00, 0x00, 0x00,
   0x00, 0x00, 0x00, 0x00, 0x00, 0x00, 0x00, 0x00, 0x00, 0x00, 0x00, 0x00,
   0x00, 0x00, 0x00, 0x00, 0x00, 0x00, 0x00, 0x00, 0x00, 0x00, 0x00, 0x00,
   0x00, 0x00, 0x00, 0x00, 0x00, 0x00, 0x00, 0x00, 0x00, 0x00, 0x20, 0x00,
   0x00, 0xfe, 0x01, 0x00, 0x00, 0x70, 0x00, 0x80, 0x03, 0x1e, 0x00, 0x00,
   0xe0, 0x00, 0xc0, 0x00, 0x60, 0x00, 0x00, 0xc0, 0x03, 0x20, 0x0c, 0x80,
   0x01, 0x00, 0x00, 0x07, 0x30, 0x1c, 0x03, 0x01, 0x00, 0x00, 0x1e, 0x08,
   0x9c, 0x07, 0x02, 0x00, 0x00, 0x38, 0x08, 0x98, 0x07, 0x02, 0x00, 0x00,
   0x70, 0x84, 0x01, 0x67, 0x02, 0x00, 0x00, 0xc0, 0xc5, 0x01, 0xe0, 0x02,
   0x00, 0x00, 0x80, 0xc7, 0x01, 0xe0, 0x02, 0x00, 0x00, 0x00, 0xce, 0xe0,
   0x00, 0x02, 0x00, 0x00, 0x00, 0x1e, 0xe0, 0x00, 0x02, 0x00, 0x00, 0x00,
   0x32, 0x40, 0x30, 0x02, 0x00, 0x00, 0x00, 0xe3, 0x01, 0x70, 0x01, 0x00,
   0x00, 0x00, 0x81, 0x03, 0x30, 0x01, 0x00, 0x00, 0x00, 0x01, 0xc3, 0x83,
   0x01, 0x00, 0x00, 0x00, 0x01, 0xc2, 0x87, 0x00, 0x00, 0x00, 0x80, 0x00,
   0x80, 0x47, 0x00, 0x00, 0x00, 0x80, 0x00, 0x0e, 0x40, 0x00, 0x00, 0x00,
   0x80, 0x00, 0xf3, 0x20, 0x00, 0x00, 0x00, 0x80, 0x80, 0x01, 0x3f, 0x00,
   0x00, 0x00, 0x80, 0x80, 0x00, 0x00, 0x00, 0x00, 0x00, 0x80, 0x60, 0x00,
   0x00, 0x00, 0x00, 0x00, 0x00, 0x37, 0x00, 0x00, 0x00, 0x00, 0x00, 0x00,
   0x1c, 0x00, 0x00, 0x00, 0x00, 0x00, 0x00, 0x00, 0x00, 0x00, 0x00, 0x00,
   0x00, 0x00, 0x00, 0x00, 0x00, 0x00, 0x00, 0x00, 0x00, 0x00, 0x00, 0x00,
   0x00, 0x00, 0x00, 0x00, 0x00, 0x00, 0x00, 0x00, 0x00, 0x00, 0x00, 0x00,
   0x00, 0x00, 0x00, 0x00};
