/* XPM */
static char * Color_bm[] = {
"50 40 11 1",
" 	c None",
".	c #A69928A228A2",
"X	c #000000000000",
"o	c #E38D71C62492",
"O	c #FFFF00000000",
"+	c #6185BAEAFFFF",
"@	c #FFFFA6990000",
"#	c #0000FFFF0000",
"$	c #FFFF14519248",
"%	c #CF3CCF3CCF3C",
"&	c #FFFFFFFF0000",
"                                                  ",
"                                                  ",
"                                                  ",
"                                                  ",
"                                                  ",
"                                                  ",
"                                                  ",
"                                                  ",
"                                                  ",
"                                                  ",
"     .                   XXXXXXXX                 ",
"    ...                XXXoooooooXXXX             ",
"     ....             XXoooooooooooooXX           ",
"      ....           XooooOOoooooooooooX          ",
"        ...         XXooooOOOooo++ooooooX         ",
"         ....      XooooooOOOoo++++ooooooX        ",
"           ...     XoooooooOOoo++++ooooooX        ",
"            ...   Xoooo@@ooooooo++ooo##ooX        ",
"              ... Xooo@@@oooooooooooo###oX        ",
"               ....ooo@@@oooooooooooo###oX        ",
"                 ...oo@@ooooo$$$oooooooooX        ",
"                 X...oooooooo$$$oooooooooX        ",
"                 Xoo..oooooooo$ooooXXXoooX        ",
"                XXooo.%&&ooooooooooXXXoooX        ",
"                Xoooooo&&&ooooooooooXXooX         ",
"                Xooooooo&&oooo%%%%ooooooX         ",
"                XooXXoooo&oooo%%%%%ooooX          ",
"               XooX  Xooooooooo%%%%oooX           ",
"               XoX    XooXXXooooooooooX           ",
"               XoX   XooXX  XXXXoooooX            ",
"               XoX  XooXX       XXXXX             ",
"               XooXXooXX                          ",
"               XoooooXX                           ",
"                XXXoXX                            ",
"                  XXX                             ",
"                                                  ",
"                                                  ",
"                                                  ",
"                                                  ",
"                                                  "};
