/* XPM */
static char * Cursor_xpm[] = {
"50 40 3 1 0 0",
" 	c None",
".	c #000000000000",
"X	c #000000008A28",
"                                                  ",
"                                                  ",
"                                                  ",
"                                                  ",
"                                                  ",
"                                                  ",
"                       .............              ",
"                        .XXXXXXXXXX.              ",
"                         .XXXXXXXXX.              ",
"                          .XXXXXXXX.              ",
"                          .XXXXXXXX.              ",
"                         .XXXXXXXXX.              ",
"                        .XXXXXXXXXX.              ",
"                       .XXXXXXXXXXX.              ",
"                      .XXXXXXXXXXXX.              ",
"                     .XXXXXXXXX..XX.              ",
"                    .XXXXXXXXX.  .X.              ",
"                   .XXXXXXXXX.    ..              ",
"                  .XXXXXXXXX.      .              ",
"                 .XXXXXXXXX.                      ",
"                .XXXXXXXXX.                       ",
"               .XXXXXXXXX.                        ",
"              .XXXXXXXXX.                         ",
"             .XXXXXXXXX.                          ",
"            .XXXXXXXXX.                           ",
"           .XXXXXXXXX.                            ",
"          .XXXXXXXXX.                             ",
"         .XXXXXXXXX.                              ",
"        .XXXXXXXXX.                               ",
"       .XXXXXXXXX.                                ",
"       .XXXXXXXX.                                 ",
"        .XXXXXX.                                  ",
"         .XXXX.                                   ",
"          .XX.                                    ",
"           ..                                     ",
"                                                  ",
"                                                  ",
"                                                  ",
"                                                  ",
"                                                  "};
