#define File_width 50
#define File_height 40
static char File_bits[] = {
   0x00, 0x00, 0x00, 0x00, 0x00, 0x00, 0x00, 0x00, 0x00, 0x00, 0x00, 0x00,
   0x00, 0x00, 0x00, 0x00, 0x00, 0x00, 0x00, 0x00, 0x00, 0xf8, 0xff, 0xff,
   0xff, 0xff, 0x7f, 0x00, 0xa8, 0x00, 0x00, 0x00, 0x00, 0x40, 0x00, 0xf8,
   0xfe, 0x07, 0x00, 0x00, 0x40, 0x00, 0xa8, 0x00, 0x00, 0x00, 0x00, 0x40,
   0x00, 0xa8, 0xfe, 0x03, 0x00, 0x00, 0x40, 0x00, 0xa8, 0x00, 0x00, 0x00,
   0x00, 0x40, 0x00, 0xa8, 0xfe, 0x3f, 0x00, 0x00, 0x40, 0x00, 0xa8, 0x00,
   0x00, 0x00, 0x00, 0x40, 0x00, 0xa8, 0xfe, 0x00, 0x00, 0x00, 0x40, 0x00,
   0xa8, 0x00, 0x00, 0x00, 0x00, 0x40, 0x00, 0xa8, 0xfe, 0x0f, 0x00, 0x00,
   0x40, 0x00, 0xa8, 0x00, 0x00, 0x00, 0x00, 0x40, 0x00, 0xa8, 0x7e, 0x00,
   0x00, 0x00, 0x40, 0x00, 0xa8, 0x00, 0x00, 0x00, 0x00, 0x40, 0x00, 0xa8,
   0xfe, 0xff, 0x01, 0x00, 0x40, 0x00, 0xf8, 0x00, 0x00, 0x00, 0x00, 0x40,
   0x00, 0xa8, 0x00, 0x00, 0x00, 0x00, 0x40, 0x00, 0xf8, 0xff, 0xff, 0xff,
   0xff, 0x7f, 0x00, 0x08, 0x00, 0x01, 0x00, 0x00, 0x40, 0x00, 0xe8, 0x7f,
   0xfd, 0xff, 0xff, 0x5f, 0x00, 0x08, 0x00, 0x01, 0x00, 0x00, 0x40, 0x00,
   0xf8, 0xff, 0xff, 0xff, 0xff, 0x7f, 0x00, 0x08, 0x10, 0x00, 0x00, 0x00,
   0x40, 0x00, 0xe8, 0xd7, 0x1f, 0x00, 0x00, 0x40, 0x00, 0x08, 0x10, 0x00,
   0x00, 0x00, 0x40, 0x00, 0xf8, 0xff, 0xff, 0xff, 0xff, 0x7f, 0x00, 0x08,
   0x80, 0x00, 0x00, 0x20, 0x40, 0x00, 0xe8, 0xbf, 0x02, 0x00, 0x20, 0x40,
   0x00, 0x08, 0x80, 0x00, 0x00, 0x20, 0x40, 0x00, 0xf8, 0xff, 0xff, 0xff,
   0xff, 0x7f, 0x00, 0x08, 0x80, 0x00, 0x00, 0x01, 0x40, 0x00, 0xe8, 0x9f,
   0xfc, 0x3f, 0xe1, 0x43, 0x00, 0x08, 0x80, 0x00, 0x00, 0x01, 0x40, 0x00,
   0xf8, 0xff, 0xff, 0xff, 0xff, 0x7f, 0x00, 0x00, 0x00, 0x00, 0x00, 0x00,
   0x00, 0x00, 0x00, 0x00, 0x00, 0x00, 0x00, 0x00, 0x00, 0x00, 0x00, 0x00,
   0x00, 0x00, 0x00, 0x00};
