/* XPM */
static char * File_xpm[] = {
"50 40 2 1",
" 	c None",
".	c #000000000000",
"                                                  ",
"                                                  ",
"     ........................................     ",
"     .   .                                  .     ",
"     . . . ..........                       .     ",
"     .....                                  .     ",
"     .   . ............                     .     ",
"     . . .                                  .     ",
"     . . . .......                          .     ",
"     . . .                                  .     ",
"     . . . ..............                   .     ",
"     . . .                                  .     ",
"     . . . ......                           .     ",
"     . . .                                  .     ",
"     . . . .........                        .     ",
"     . . .                                  .     ",
"     . . . ...............                  .     ",
"     .   .                                  .     ",
"     ..... .........                        .     ",
"     . . .                                  .     ",
"     .   .                                  .     ",
"     ........................................     ",
"     .            .                         .     ",
"     . .......... . ...................     .     ",
"     .            .                         .     ",
"     ........................................     ",
"     .         .                            .     ",
"     . ....... . ........                   .     ",
"     .         .                            .     ",
"     ........................................     ",
"     .                .             .       .     ",
"     . ... .......... . ..          .       .     ",
"     .                .             .       .     ",
"     ........................................     ",
"     .                  .                   .     ",
"     .      .....       .      ........     .     ",
"     .                  .                   .     ",
"     ........................................     ",
"                                                  ",
"                                                  "};
