#define Font_width 50
#define Font_height 40
static char Font_bits[] = {
   0x00, 0x00, 0x00, 0x00, 0x00, 0x00, 0x00, 0x00, 0x00, 0x00, 0x00, 0x00,
   0x00, 0x00, 0x00, 0x00, 0x00, 0x00, 0x00, 0x00, 0x00, 0x00, 0x00, 0x00,
   0x00, 0x00, 0x00, 0x00, 0x00, 0xf0, 0x07, 0x00, 0x00, 0x00, 0x00, 0x00,
   0xf0, 0x07, 0x00, 0x00, 0x00, 0x00, 0x00, 0xc0, 0x01, 0x00, 0x00, 0x00,
   0x00, 0x00, 0xc0, 0x01, 0x00, 0x00, 0x00, 0x00, 0x00, 0xe0, 0x03, 0x00,
   0xfe, 0x07, 0x00, 0x00, 0xe0, 0x03, 0x00, 0xfe, 0x0f, 0x00, 0x00, 0x70,
   0x07, 0x00, 0x06, 0x1c, 0x00, 0x00, 0x30, 0x06, 0x00, 0x06, 0x38, 0x00,
   0x00, 0x38, 0x0e, 0x00, 0x06, 0x30, 0x00, 0x00, 0x18, 0x0c, 0x00, 0x06,
   0x30, 0x00, 0x00, 0x1c, 0x1c, 0x00, 0x06, 0x30, 0x00, 0x00, 0x0c, 0x18,
   0x00, 0x06, 0x30, 0x00, 0x00, 0x0e, 0x38, 0x00, 0x06, 0x30, 0x00, 0x00,
   0x06, 0x30, 0x00, 0x06, 0x38, 0x00, 0x00, 0x07, 0x70, 0x00, 0x06, 0x1c,
   0x00, 0x00, 0xff, 0x7f, 0x00, 0x06, 0x0e, 0x00, 0x80, 0xff, 0xff, 0x00,
   0xfe, 0x07, 0x00, 0x80, 0x01, 0xc0, 0x00, 0xfe, 0x07, 0x00, 0xc0, 0x01,
   0xc0, 0x01, 0x06, 0x0e, 0x00, 0xc0, 0x00, 0x80, 0x01, 0x06, 0x1c, 0x00,
   0xe0, 0x00, 0x80, 0x03, 0x06, 0x38, 0x00, 0x60, 0x00, 0x00, 0x03, 0x06,
   0x30, 0x00, 0x70, 0x00, 0x00, 0x07, 0x06, 0x30, 0x00, 0x30, 0x00, 0x00,
   0x06, 0x06, 0x30, 0x00, 0xfc, 0x00, 0x80, 0x1f, 0x06, 0x30, 0x00, 0xfc,
   0x00, 0x80, 0x1f, 0x06, 0x30, 0x00, 0x00, 0x00, 0x00, 0x00, 0x06, 0x30,
   0x00, 0x00, 0x00, 0x00, 0x00, 0x06, 0x30, 0x00, 0x00, 0x00, 0x00, 0x00,
   0x06, 0x38, 0x00, 0x00, 0x00, 0x00, 0x00, 0x06, 0x1c, 0x00, 0x00, 0x00,
   0x00, 0x00, 0xfe, 0x0f, 0x00, 0x00, 0x00, 0x00, 0x00, 0xfe, 0x07, 0x00,
   0x00, 0x00, 0x00, 0x00, 0x00, 0x00, 0x00, 0x00, 0x00, 0x00, 0x00, 0x00,
   0x00, 0x00, 0x00, 0x00, 0x00, 0x00, 0x00, 0x00, 0x00, 0x00, 0x00, 0x00,
   0x00, 0x00, 0x00, 0x00};
