/* XPM */
static char *Font[] = {
/* Font pixmap
 * width height ncolors chars_per_pixel */
"50 40 38 3 ",
/* colors */
"00  c white s white",
"01  c gray90 s gray90",
"02  c gray80 s gray80",
"03  c gray70 s gray70",
"04  c gray60 s gray60",
"05  c gray50 s gray50",
"06  c gray40 s gray40",
"07  c gray30 s gray30",
"08  c gray20 s gray20",
"09  c gray10 s gray10",
"10  c gray1 s gray1",
"11  c black s black",
"12  c orange1 s orange1",
"13  c DarkOrange1 s DarkOrange1",
"14  c coral1 s coral1",
"15  c red s red",
"16  c firebrick2 s firebrick2",
"17  c firebrick4 s firebrick4",
"18  c LightSkyBlue1 s LightSkyBlue1",
"19  c SteelBlue1 s SteelBlue1",
"20  c DodgerBlue3 s DodgerBlue3",
"21  c blue3 s blue3",
"22  c blue4 s blue4",
"23  c navy s navy",
"24  c yellow1 s yellow1",
"25  c yellow3 s yellow3",
"26  c GreenYellow s GreenYellow",
"27  c green s green",
"28  c LimeGreen s LimeGreen",
"29  c ForestGreen s ForestGreen",
"30  c pink s pink",
"31  c LightPink s LightPink",
"32  c HotPink s HotPink",
"33  c DeepPink1 s DeepPink1",
"34  c DeepPink3 s DeepPink3",
"35  c DeepPink4 s DeepPink4",
"36  c white s white",
"37  c none s mask",
/* pixels */
"37 37 37 37 37 37 37 37 37 37 37 37 37 37 37 37 37 37 37 37 37 37 37 37 37 37 37 37 37 37 37 37 37 37 37 37 37 37 37 37 37 37 37 37 37 37 37 37 37 37 ",
"37 37 37 37 37 37 37 37 37 37 37 37 37 37 37 37 37 37 37 37 37 37 37 37 37 37 37 37 37 37 37 37 37 37 37 37 37 37 37 37 37 37 37 37 37 37 37 37 37 37 ",
"37 37 37 37 37 37 37 37 37 37 37 37 37 37 37 37 37 37 37 37 37 37 37 37 37 37 37 37 37 37 37 37 37 37 37 37 37 37 37 37 37 37 37 37 37 37 37 37 37 37 ",
"37 37 37 37 37 37 37 37 37 37 37 37 37 37 37 37 37 37 37 37 37 37 37 37 37 37 37 37 37 37 37 37 37 37 37 37 37 37 37 37 37 37 37 37 37 37 37 37 37 37 ",
"37 37 37 37 37 37 37 37 37 37 37 37 37 37 37 37 37 37 37 37 27 27 27 27 27 27 27 37 37 37 37 37 37 37 37 37 37 37 37 37 37 37 37 37 37 37 37 37 37 37 ",
"37 37 37 37 37 37 37 37 37 37 37 37 37 37 37 37 37 37 37 27 37 27 37 37 37 37 37 27 27 37 37 37 37 37 37 37 37 37 37 37 37 37 37 37 37 37 37 37 37 37 ",
"37 37 37 37 37 37 37 37 37 37 37 37 37 37 37 37 37 37 37 37 37 27 27 37 37 37 37 37 27 37 37 37 37 37 37 37 37 37 37 37 37 37 37 37 37 37 37 37 37 37 ",
"37 37 37 37 37 37 37 37 37 37 37 37 37 37 37 37 37 37 37 37 37 37 27 37 37 37 37 37 27 37 37 37 37 37 37 37 37 37 37 37 37 37 37 37 37 37 37 37 37 37 ",
"37 37 37 37 37 37 37 37 37 37 37 37 37 37 37 37 37 37 37 37 37 37 27 27 37 37 37 37 27 37 37 37 37 37 37 37 37 37 37 37 37 37 37 37 37 37 37 37 37 37 ",
"37 37 37 37 37 37 37 37 37 37 37 04 04 37 37 37 37 37 37 37 37 37 37 27 37 37 37 37 27 37 37 37 37 37 37 37 37 37 37 37 37 37 37 37 37 37 37 37 37 37 ",
"37 37 37 37 37 37 37 37 37 37 37 04 04 37 37 37 37 37 37 37 37 37 37 27 37 37 37 27 37 37 37 37 37 37 37 37 37 37 37 37 37 37 37 37 37 37 37 37 37 37 ",
"37 37 37 37 37 37 37 37 37 37 04 04 04 04 37 37 37 37 37 37 37 37 37 27 37 27 27 27 27 37 37 37 37 37 37 37 37 37 37 37 37 37 37 37 37 37 37 37 37 37 ",
"37 37 37 37 37 37 37 37 37 37 04 04 04 04 37 37 37 37 37 37 37 37 27 37 37 37 37 37 37 27 37 37 37 37 37 37 37 37 37 37 37 37 37 37 37 37 37 37 37 37 ",
"37 37 37 37 37 37 37 37 37 04 04 37 37 04 04 37 37 37 37 37 37 37 27 37 37 37 37 37 37 27 37 37 37 37 37 37 37 37 37 37 37 37 37 37 37 37 37 37 37 37 ",
"37 37 37 37 37 37 37 37 37 04 04 37 37 04 04 37 37 37 37 37 37 37 27 37 37 37 37 37 37 27 37 37 37 37 37 37 37 37 37 37 37 37 37 37 37 37 37 37 37 37 ",
"37 37 37 37 37 37 37 37 04 04 37 37 37 37 04 04 37 37 37 37 37 37 27 37 37 37 37 37 37 27 37 37 37 37 37 37 37 37 37 37 37 37 37 37 37 37 37 37 37 37 ",
"37 37 37 37 37 37 37 37 04 04 37 37 37 37 04 04 37 37 37 37 37 27 37 37 37 37 37 37 37 27 37 37 37 37 37 37 37 37 37 37 37 37 37 37 37 37 37 37 37 37 ",
"37 37 37 37 37 37 37 04 04 37 37 37 37 37 37 04 04 37 37 37 37 27 37 37 37 37 37 37 37 27 37 37 37 37 37 37 37 37 37 37 37 37 37 37 37 37 37 37 37 37 ",
"37 37 37 37 37 37 37 04 04 04 04 04 04 04 04 04 04 37 37 37 27 37 27 37 37 37 37 37 27 37 37 37 37 37 37 37 37 37 37 37 37 37 37 37 37 37 37 37 37 37 ",
"37 37 37 37 37 37 04 04 04 04 04 04 04 04 04 04 04 04 37 37 37 37 27 27 27 27 27 27 27 37 37 37 37 37 37 37 37 37 37 37 37 37 37 37 37 37 37 37 37 37 ",
"37 37 37 37 37 37 04 04 37 37 37 37 37 37 37 37 04 04 37 37 37 37 37 37 37 37 37 37 37 37 37 37 37 37 37 37 37 37 37 37 37 37 37 37 37 37 37 37 37 37 ",
"37 37 37 37 37 04 04 37 37 37 37 37 37 37 37 37 37 04 04 37 37 37 37 37 37 37 37 37 37 22 37 37 37 37 37 37 37 37 37 37 37 37 37 37 37 37 37 37 37 37 ",
"37 37 37 37 37 04 04 37 37 37 37 37 37 37 37 37 37 04 04 37 37 37 37 37 37 37 37 37 37 22 22 22 22 22 22 22 37 37 37 37 37 37 37 37 37 37 37 37 37 37 ",
"37 37 37 37 37 37 37 37 37 37 37 37 37 37 37 37 37 37 37 37 37 37 37 37 37 37 37 37 37 22 22 22 22 22 22 22 22 22 37 37 37 37 37 37 37 37 37 37 37 37 ",
"37 37 37 37 37 37 37 37 37 37 37 37 37 37 37 37 37 37 37 37 37 37 37 37 37 37 37 37 37 22 37 22 22 37 37 37 22 22 22 37 37 37 37 37 37 37 37 37 37 37 ",
"37 37 37 37 37 37 37 37 37 37 37 37 37 37 37 37 37 37 37 37 37 37 37 37 37 37 37 37 37 37 37 22 22 37 37 37 37 22 22 37 37 37 37 37 37 37 37 37 37 37 ",
"37 37 37 37 37 37 37 37 37 37 37 37 37 37 37 37 37 37 37 37 37 37 37 37 37 37 37 37 37 37 37 22 22 37 37 37 37 37 22 22 37 37 37 37 37 37 37 37 37 37 ",
"37 37 37 37 37 37 37 37 37 37 37 37 37 37 37 37 37 37 37 37 37 37 37 37 37 37 37 37 37 37 37 22 22 37 37 37 37 37 22 22 37 37 37 37 37 37 37 37 37 37 ",
"37 37 37 37 37 37 37 37 37 37 37 37 37 37 37 37 37 37 37 37 37 37 37 37 37 37 37 37 37 37 37 22 22 37 37 37 37 37 22 22 37 37 37 37 37 37 37 37 37 37 ",
"37 37 37 37 37 37 37 37 37 37 37 37 37 37 37 37 37 37 37 37 37 37 37 37 37 37 37 37 37 37 37 22 22 37 37 37 37 37 22 22 37 37 37 37 37 37 37 37 37 37 ",
"37 37 37 37 37 37 37 37 37 37 37 37 37 37 37 37 37 37 37 37 37 37 37 37 37 37 37 37 37 37 37 22 22 37 37 37 37 37 22 22 37 37 37 37 37 37 37 37 37 37 ",
"37 37 37 37 37 37 37 37 37 37 37 37 37 37 37 37 37 37 37 37 37 37 37 37 37 37 37 37 37 37 37 22 22 37 37 37 37 37 22 22 37 37 37 37 37 37 37 37 37 37 ",
"37 37 37 37 37 37 37 37 37 37 37 37 37 37 37 37 37 37 37 37 37 37 37 37 37 37 37 37 37 37 37 22 22 37 37 37 37 22 22 22 37 37 37 37 37 37 37 37 37 37 ",
"37 37 37 37 37 37 37 37 37 37 37 37 37 37 37 37 37 37 37 37 37 37 37 37 37 37 37 37 37 22 37 22 22 37 37 37 22 22 22 37 37 37 37 37 37 37 37 37 37 37 ",
"37 37 37 37 37 37 37 37 37 37 37 37 37 37 37 37 37 37 37 37 37 37 37 37 37 37 37 37 37 22 22 22 22 22 22 22 22 22 37 37 37 37 37 37 37 37 37 37 37 37 ",
"37 37 37 37 37 37 37 37 37 37 37 37 37 37 37 37 37 37 37 37 37 37 37 37 37 37 37 37 37 22 22 22 22 22 22 22 37 37 37 37 37 37 37 37 37 37 37 37 37 37 ",
"37 37 37 37 37 37 37 37 37 37 37 37 37 37 37 37 37 37 37 37 37 37 37 37 37 37 37 37 37 22 37 37 37 37 37 37 37 37 37 37 37 37 37 37 37 37 37 37 37 37 ",
"37 37 37 37 37 37 37 37 37 37 37 37 37 37 37 37 37 37 37 37 37 37 37 37 37 37 37 37 37 37 37 37 37 37 37 37 37 37 37 37 37 37 37 37 37 37 37 37 37 37 ",
"37 37 37 37 37 37 37 37 37 37 37 37 37 37 37 37 37 37 37 37 37 37 37 37 37 37 37 37 37 37 37 37 37 37 37 37 37 37 37 37 37 37 37 37 37 37 37 37 37 37 ",
"37 37 37 37 37 37 37 37 37 37 37 37 37 37 37 37 37 37 37 37 37 37 37 37 37 37 37 37 37 37 37 37 37 37 37 37 37 37 37 37 37 37 37 37 37 37 37 37 37 37 ",
};
