#define Pixmap_width 50
#define Pixmap_height 40
static char Pixmap_bits[] = {
   0x00, 0x00, 0x00, 0x00, 0x00, 0x00, 0x00, 0x00, 0x00, 0x00, 0x06, 0x00,
   0x00, 0x00, 0x00, 0x00, 0x80, 0x19, 0x00, 0x00, 0x00, 0x00, 0x00, 0x60,
   0x60, 0x00, 0x00, 0x00, 0xf0, 0xff, 0xff, 0xff, 0xff, 0xff, 0x00, 0xf0,
   0xff, 0xff, 0xff, 0xff, 0xff, 0x00, 0x30, 0x00, 0x00, 0x00, 0x08, 0xe1,
   0x00, 0x30, 0x00, 0xfe, 0x01, 0x10, 0xd0, 0x00, 0x30, 0x00, 0xfe, 0x01,
   0x80, 0xc3, 0x00, 0x30, 0x80, 0xff, 0x0f, 0xc0, 0xc7, 0x00, 0x30, 0x80,
   0xff, 0x0f, 0xd4, 0xc7, 0x00, 0x30, 0x00, 0xe8, 0x07, 0xc0, 0xc7, 0x00,
   0x30, 0x00, 0xc0, 0x01, 0x80, 0xc3, 0x00, 0x30, 0x00, 0x00, 0x00, 0x20,
   0xd0, 0x00, 0x30, 0x00, 0x00, 0x00, 0x10, 0xe1, 0x00, 0x30, 0x00, 0x00,
   0x00, 0x00, 0xc0, 0x00, 0x30, 0x00, 0x00, 0x00, 0xf8, 0xc0, 0x00, 0x30,
   0x00, 0x00, 0x00, 0xfe, 0xc1, 0x00, 0x30, 0x40, 0x00, 0x00, 0x53, 0xc2,
   0x00, 0x30, 0xe0, 0x00, 0x00, 0xbf, 0xc7, 0x00, 0x30, 0xf0, 0x01, 0x80,
   0xd9, 0xc5, 0x00, 0x30, 0xf8, 0x03, 0x80, 0xd3, 0xc5, 0x00, 0x30, 0xfc,
   0x07, 0x80, 0x5f, 0xc7, 0x00, 0x30, 0xfa, 0x0b, 0x00, 0x76, 0xc2, 0x00,
   0x30, 0x08, 0x02, 0x00, 0x64, 0xc0, 0x00, 0x30, 0x08, 0x02, 0x00, 0x60,
   0xc0, 0x00, 0x30, 0x68, 0x02, 0x00, 0x60, 0xc0, 0x00, 0xb0, 0x69, 0x02,
   0x00, 0x60, 0xe0, 0x00, 0x70, 0x6e, 0x0e, 0x00, 0x60, 0xf8, 0x00, 0x30,
   0xf8, 0xf3, 0x3f, 0xf0, 0xc6, 0x00, 0x30, 0x00, 0x00, 0xc0, 0xfb, 0xc1,
   0x00, 0x30, 0x00, 0x00, 0x00, 0xfe, 0xc0, 0x00, 0x30, 0x00, 0x00, 0x00,
   0x00, 0xc0, 0x00, 0x30, 0x00, 0x00, 0x00, 0x00, 0xc0, 0x00, 0x30, 0x00,
   0x00, 0x00, 0x00, 0xc0, 0x00, 0xf0, 0xff, 0xff, 0xff, 0xff, 0xff, 0x00,
   0xf0, 0xff, 0xff, 0xff, 0xff, 0xff, 0x00, 0x00, 0x00, 0x00, 0x00, 0x00,
   0x00, 0x00, 0x00, 0x00, 0x00, 0x00, 0x00, 0x00, 0x00, 0x00, 0x00, 0x00,
   0x00, 0x00, 0x00, 0x00};
