/* XPM */
static char * Pixmap_xpm[] = {
"50 40 9 1",
" 	c None",
".	c #000000000000",
"X	c #A69928A228A2",
"o	c #B2CAE38DFFFF",
"O	c #FFFFFFFF0000",
"+	c #CF3CCF3CCF3C",
"@	c #20818A282081",
"#	c #FFFF00000000",
"$	c #FFFF71C65555",
"                                                  ",
"                         ..                       ",
"                       ..  ..                     ",
"                     ..      ..                   ",
"    XXXXXXXXXXXXXXXXXXXXXXXXXXXXXXXXXXXXXXXXXXXX  ",
"    XXXXXXXXXXXXXXXXXXXXXXXXXXXXXXXXXXXXXXXXXXXX  ",
"    XXoooooooooooooooooooooooooooooOooooOooooOXX  ",
"    XXooooooooooo++++++++oooooooooooOoooooooOoXX  ",
"    XXooooooooooo++++++++ooooooooooooooOOOooooXX  ",
"    XXooooooooo+++++++++++++ooooooooooOOOOOoooXX  ",
"    XXooooooooo+++++++++++++ooooooOoOoOOOOOoOoXX  ",
"    XXooooooooooooo+o++++++oooooooooooOOOOOoooXX  ",
"    XXoooooooooooooooo+++ooooooooooooooOOOooooXX  ",
"    XXoooooooooooooooooooooooooooooooOooooooOoXX  ",
"    XXooooooooooooooooooooooooooooooOoooOooooOXX  ",
"    XXooooooooooooooooooooooooooooooooooooooooXX  ",
"    XXooooooooooooooooooooooooooooo@@@@@ooooooXX  ",
"    XXooooooooooooooooooooooooooo@@@@@@@@oooooXX  ",
"    XXoooooooo#ooooooooooooooooo@@XX@X@XX@ooooXX  ",
"    XXooooooo###oooooooooooooooo@@@@@@X@@@@oooXX  ",
"    XXoooooo#####oooooooooooooo@@XX@@X@@@X@oooXX  ",
"    XXooooo#######ooooooooooooo@@@XX@X@@@X@oooXX  ",
"    XXoooo#########oooooooooooo@@@@@@X@o@@@oooXX  ",
"    XXooo#o.......o#ooooooooooooo@@o@@Xoo@ooooXX  ",
"    XXooooo.$$$$$.oooooooooooooooo@ooXXoooooooXX  ",
"    XXooooo.$$$$$.oooooooooooooooooooXXoooooooXX  ",
"    XXooooo.$..$$.oooooooooooooooooooXXoooooooXX  ",
"    XX...oo.$..$$.oooooooooooooooooooXXoooooooXX  ",
"    XX@@@...$..$$...oooooooooooooooooXXoooo...XX  ",
"    XX@@@@@.......@@..........ooooooXXXXo..@@@XX  ",
"    XX@@@@@@@@@@@@@@@@@@@@@@@@....XXXXX..@@@@@XX  ",
"    XX@@@@@@@@@@@@@@@@@@@@@@@@@@@......@@@@@@@XX  ",
"    XX@@@@@@@@@@@@@@@@@@@@@@@@@@@@@@@@@@@@@@@@XX  ",
"    XX@@@@@@@@@@@@@@@@@@@@@@@@@@@@@@@@@@@@@@@@XX  ",
"    XX@@@@@@@@@@@@@@@@@@@@@@@@@@@@@@@@@@@@@@@@XX  ",
"    XXXXXXXXXXXXXXXXXXXXXXXXXXXXXXXXXXXXXXXXXXXX  ",
"    XXXXXXXXXXXXXXXXXXXXXXXXXXXXXXXXXXXXXXXXXXXX  ",
"                                                  ",
"                                                  ",
"                                                  "};
