#define tool_width 22
#define tool_height 22
static char tool_bits[] = {
 0x00,0x00,0x00,0x1c,0x00,0x00,0x7e,0x00,0x00,0xde,0x00,0x00,0xbe,0x01,0x00,
 0x76,0x03,0x00,0xec,0x06,0x00,0xd8,0x0d,0x00,0xb0,0x0b,0x00,0x60,0x1f,0x00,
 0xc0,0x16,0x00,0x80,0x1b,0x00,0x00,0x3e,0x00,0x00,0x70,0x00,0x00,0xe0,0x00,
 0x00,0xc0,0x01,0x00,0x80,0x03,0x00,0x00,0x07,0x00,0x00,0x1e,0x00,0x00,0x1c,
 0x00,0x00,0x1c,0x00,0x00,0x00};
